<?xml version="1.0" encoding="UTF-8" standalone="no"?>
<svg
   xmlns:dc="http://purl.org/dc/elements/1.1/"
   xmlns:cc="http://creativecommons.org/ns#"
   xmlns:rdf="http://www.w3.org/1999/02/22-rdf-syntax-ns#"
   xmlns:svg="http://www.w3.org/2000/svg"
   xmlns="http://www.w3.org/2000/svg"
   id="svg8"
   version="1.1"
   viewBox="0 0 20 20"
   height="20mm"
   width="20mm">
  <defs
     id="defs2">
    <marker
       style="overflow:visible"
       id="EmptyDiamondLend"
       refX="0"
       refY="0"
       orient="auto">
      <path
         transform="matrix(0.8,0,0,0.8,-5.6,0)"
         style="fill:#ffffff;fill-rule:evenodd;stroke:#000000;stroke-width:1.00000003pt;stroke-opacity:1"
         d="M 0,-7.0710768 -7.0710894,0 0,7.0710589 7.0710462,0 Z"
         id="path5037" />
    </marker>
  </defs>
  <metadata
     id="metadata5">
    <rdf:RDF>
      <cc:Work
         rdf:about="">
        <dc:format>image/svg+xml</dc:format>
        <dc:type
           rdf:resource="http://purl.org/dc/dcmitype/StillImage" />
        <dc:title></dc:title>
      </cc:Work>
    </rdf:RDF>
  </metadata>
  <g
     transform="translate(0,-277)"
     style="display:inline"
     id="layer2">
    <path
       id="path5197"
       d="m 13.473906,279.49831 0.932656,0.46964 -0.582083,1.23692 -0.899583,-0.56885 z"
       style="fill:#dfce4f;fill-opacity:1;stroke:none;stroke-width:0.05291666px;stroke-linecap:butt;stroke-linejoin:miter;stroke-opacity:1" />
    <path
       id="path4843"
       d="m 4.9531724,293.15115 c -1.386175,-1.5297 -2.2460116,-3.1703 -2.1819904,-5.73507 0.072566,-2.90708 2.7198704,-7.28163 7.303543,-7.30033 3.779191,-10e-6 5.640723,2.74084 5.977482,3.30211"
       style="opacity:1;fill:#000000;fill-opacity:0;stroke:#ffffff;stroke-width:0.60000002;stroke-linecap:round;stroke-linejoin:round;stroke-miterlimit:4;stroke-dasharray:none;stroke-dashoffset:0;stroke-opacity:1" />
    <path
       id="path5195"
       d="m 15.794961,283.60027 0.556588,1.30962 c 0,0 -0.229183,0.32273 -0.144993,0.47708 0.08419,0.15435 0.107576,0.29934 0.528525,0.0889 0.42095,-0.21048 0.547234,-0.27128 0.332083,-0.76707 -0.215152,-0.49578 -0.472399,-1.09914 -0.472399,-1.09914 l -0.266602,-0.3087 z"
       style="fill:#e00f32;fill-opacity:1;stroke:none;stroke-width:0.05291666px;stroke-linecap:butt;stroke-linejoin:miter;stroke-opacity:1" />
  </g>
</svg>
